<svg xmlns="http://www.w3.org/2000/svg" viewBox="0 0 48 48" width="48" height="48">
  <!-- Carte PCI -->
  <rect x="4" y="6" width="34" height="30" rx="3" fill="none" stroke="#cccccc" stroke-width="3"/>
  
  <!-- Connecteur USB à droite -->
  <rect x="38" y="16" width="6" height="6" rx="1" fill="#cccccc"/>
  <rect x="38" y="24" width="6" height="6" rx="1" fill="#cccccc"/>
  
  <!-- Note de musique (croche originale) -->
  <path d="M16 14 L16 26" stroke="#cccccc" stroke-width="2.5" stroke-linecap="round"/>
  <path d="M26 24 L26 12" stroke="#cccccc" stroke-width="2.5" stroke-linecap="round"/>
  <path d="M16 14 L26 11" stroke="#cccccc" stroke-width="2" stroke-linecap="round"/>
  <path d="M16 18 L26 15" stroke="#cccccc" stroke-width="2" stroke-linecap="round"/>
  <circle cx="14" cy="25" r="3.5" fill="#cccccc"/>
  <circle cx="24" cy="23" r="3.5" fill="#cccccc"/>
  
  <!-- Broches PCI en bas -->
  <path d="M10 38 L10 42 M14 38 L14 42 M18 38 L18 42 M22 38 L22 42 M26 38 L26 42 M30 38 L30 42" stroke="#cccccc" stroke-width="2" stroke-linecap="round"/>
</svg>
